<mxfile host="app.diagrams.net" agent="Mozilla/5.0 (Macintosh; Intel Mac OS X 10_15_7) AppleWebKit/537.36 (KHTML, like Gecko) Chrome/128.0.0.0 Safari/537.36" version="24.7.16">
  <diagram name="Page-1" id="CcpdX8indJMK2PnssGdx">
    <mxGraphModel dx="542" dy="1049" grid="0" gridSize="10" guides="1" tooltips="1" connect="1" arrows="1" fold="1" page="0" pageScale="1" pageWidth="850" pageHeight="1100" math="0" shadow="0">
      <root>
        <mxCell id="0" />
        <mxCell id="1" parent="0" />
        <mxCell id="W1gAEj8_giJVmPvFQim6-11" style="edgeStyle=none;curved=1;rounded=0;orthogonalLoop=1;jettySize=auto;html=1;fontSize=12;startSize=8;endSize=8;" edge="1" parent="1" source="W1gAEj8_giJVmPvFQim6-1" target="W1gAEj8_giJVmPvFQim6-1">
          <mxGeometry relative="1" as="geometry" />
        </mxCell>
        <mxCell id="W1gAEj8_giJVmPvFQim6-15" value="" style="shape=trapezoid;perimeter=trapezoidPerimeter;whiteSpace=wrap;html=1;fixedSize=1;size=48;" vertex="1" parent="1">
          <mxGeometry x="75" y="-31.034999999999997" width="352" height="288.07" as="geometry" />
        </mxCell>
        <mxCell id="W1gAEj8_giJVmPvFQim6-17" value="" style="rounded=0;whiteSpace=wrap;html=1;" vertex="1" parent="1">
          <mxGeometry x="75" y="257.03" width="352" height="71.07" as="geometry" />
        </mxCell>
        <mxCell id="W1gAEj8_giJVmPvFQim6-1" value="" style="ellipse;whiteSpace=wrap;html=1;aspect=fixed;" vertex="1" parent="1">
          <mxGeometry x="132" y="-6" width="238" height="238" as="geometry" />
        </mxCell>
        <mxCell id="W1gAEj8_giJVmPvFQim6-18" value="" style="ellipse;whiteSpace=wrap;html=1;aspect=fixed;" vertex="1" parent="1">
          <mxGeometry x="145.5" y="7.5" width="211" height="211" as="geometry" />
        </mxCell>
        <mxCell id="W1gAEj8_giJVmPvFQim6-19" value="" style="ellipse;whiteSpace=wrap;html=1;aspect=fixed;" vertex="1" parent="1">
          <mxGeometry x="184.5" y="46.5" width="133" height="133" as="geometry" />
        </mxCell>
        <mxCell id="W1gAEj8_giJVmPvFQim6-2" value="" style="ellipse;whiteSpace=wrap;html=1;aspect=fixed;" vertex="1" parent="1">
          <mxGeometry x="198" y="60" width="106" height="106" as="geometry" />
        </mxCell>
        <mxCell id="W1gAEj8_giJVmPvFQim6-3" value="" style="ellipse;whiteSpace=wrap;html=1;aspect=fixed;" vertex="1" parent="1">
          <mxGeometry x="297" y="146" width="40" height="40" as="geometry" />
        </mxCell>
        <mxCell id="W1gAEj8_giJVmPvFQim6-4" value="" style="ellipse;whiteSpace=wrap;html=1;aspect=fixed;" vertex="1" parent="1">
          <mxGeometry x="317.5" y="88.96" width="38" height="38" as="geometry" />
        </mxCell>
        <mxCell id="W1gAEj8_giJVmPvFQim6-5" value="" style="ellipse;whiteSpace=wrap;html=1;aspect=fixed;" vertex="1" parent="1">
          <mxGeometry x="282" y="24" width="38" height="38" as="geometry" />
        </mxCell>
        <mxCell id="W1gAEj8_giJVmPvFQim6-6" value="" style="ellipse;whiteSpace=wrap;html=1;aspect=fixed;" vertex="1" parent="1">
          <mxGeometry x="232" y="7.5" width="38" height="38" as="geometry" />
        </mxCell>
        <mxCell id="W1gAEj8_giJVmPvFQim6-7" value="" style="ellipse;whiteSpace=wrap;html=1;aspect=fixed;" vertex="1" parent="1">
          <mxGeometry x="194" y="163" width="38" height="38" as="geometry" />
        </mxCell>
        <mxCell id="W1gAEj8_giJVmPvFQim6-8" value="" style="ellipse;whiteSpace=wrap;html=1;aspect=fixed;" vertex="1" parent="1">
          <mxGeometry x="146.5" y="94" width="38" height="38" as="geometry" />
        </mxCell>
        <mxCell id="W1gAEj8_giJVmPvFQim6-9" value="" style="ellipse;whiteSpace=wrap;html=1;aspect=fixed;" vertex="1" parent="1">
          <mxGeometry x="229" y="179.5" width="38" height="38" as="geometry" />
        </mxCell>
        <mxCell id="W1gAEj8_giJVmPvFQim6-10" value="" style="ellipse;whiteSpace=wrap;html=1;aspect=fixed;" vertex="1" parent="1">
          <mxGeometry x="175" y="31" width="38" height="38" as="geometry" />
        </mxCell>
        <mxCell id="W1gAEj8_giJVmPvFQim6-20" value="" style="ellipse;whiteSpace=wrap;html=1;aspect=fixed;" vertex="1" parent="1">
          <mxGeometry x="160" y="141.5" width="38" height="38" as="geometry" />
        </mxCell>
      </root>
    </mxGraphModel>
  </diagram>
</mxfile>
